<?xml version="1.0" encoding="UTF-8" standalone="no"?>
<svg
   viewBox="0 0 10.667969 13.998051"
   version="1.1"
   x="0px"
   y="0px"
   id="svg14"
   sodipodi:docname="avatar.svg"
   width="10.667969"
   height="13.998051"
   inkscape:version="1.1 (c4e8f9ed74, 2021-05-24)"
   xmlns:inkscape="http://www.inkscape.org/namespaces/inkscape"
   xmlns:sodipodi="http://sodipodi.sourceforge.net/DTD/sodipodi-0.dtd"
   xmlns="http://www.w3.org/2000/svg"
   xmlns:svg="http://www.w3.org/2000/svg">
  <defs
     id="defs18" />
  <sodipodi:namedview
     id="namedview16"
     pagecolor="#ffffff"
     bordercolor="#666666"
     borderopacity="1.0"
     inkscape:pageshadow="2"
     inkscape:pageopacity="0.0"
     inkscape:pagecheckerboard="0"
     showgrid="false"
     fit-margin-top="0"
     fit-margin-left="0"
     fit-margin-right="0"
     fit-margin-bottom="0"
     inkscape:zoom="9.4125"
     inkscape:cx="14.289509"
     inkscape:cy="16.308101"
     inkscape:window-width="2560"
     inkscape:window-height="1600"
     inkscape:window-x="0"
     inkscape:window-y="0"
     inkscape:window-maximized="1"
     inkscape:current-layer="g6" />
  <g
     transform="translate(-2.3320312,-1037.3642)"
     id="g8">
    <g
       transform="translate(0.21663907,-0.49245047)"
       id="g6">
      <g
         transform="translate(0.11197307,-0.05711857)"
         id="g4">
        <path
           style="color:#000000;text-indent:0;text-transform:none;direction:ltr;baseline-shift:baseline;enable-background:accumulate"
           d="m 8.5019531,1.0019531 c 2.3817949,0 4.4934359,1.7088875 4.4980469,4.3671875 -3.2e-5,0.00326 -3.2e-5,0.00651 0,0.00977 0,1.414 -0.208771,2.1245438 -0.492188,2.7148438 -0.283417,0.5903 -0.693732,1.1018156 -1.050781,1.9785156 -0.717543,1.7618 -0.48597,3.23205 -0.103515,4.21875 0.121519,0.3135 0.238123,0.493584 0.359375,0.708984 L 6.5,15 v -2.494141 c -2.62e-5,-0.261792 -0.2382078,-0.499974 -0.5,-0.5 -0.2020752,0 -1.0816333,2e-4 -1.4921875,0 -0.5021195,0 -0.6741454,-0.117512 -0.7871094,-0.257812 -0.112964,-0.1403 -0.1819105,-0.394622 -0.2011719,-0.732422 -0.012851,-0.2253 -0.00699,-0.476922 -0.00391,-0.732422 9.743e-4,-0.1123 0.00288,-0.224837 0.00391,-0.3359374 0.00452,-0.4128 0.00809,-0.7670906 0.00586,-1.0253906 -0.00112,-0.1292 -0.00376,-0.2342063 -0.00781,-0.3164062 -0.00203,-0.041 -0.00393,-0.074941 -0.00977,-0.1191407 -0.00292,-0.022 -0.00396,-0.042703 -0.019531,-0.095703 -0.00389,-0.013 -0.00941,-0.028828 -0.017578,-0.048828 -0.00817,-0.02 -0.040657,-0.080078 -0.041016,-0.080078 C 3.4293289,8.2611187 3.3128699,8.1311594 3.3125,8.1308594 c -1.849e-4,-2e-4 -0.1267654,-0.072266 -0.1269531,-0.072266 -1.878e-4,-10e-5 -0.1814499,-0.033203 -0.1816407,-0.033203 h -0.671875 c 0.1736554,-0.3093 0.3720032,-0.6936437 0.5117188,-0.9648437 0.2397481,-0.4654 0.3710936,-1.0223688 0.3710938,-2.1054688 0,-1.5887 0.6664461,-2.4979156 1.6660156,-3.1035156 0.9995695,-0.6057 2.3672392,-0.8457031 3.6210937,-0.8457031 z"
           transform="translate(-0.32861214,1036.9118)"
           fill="#000000"
           fill-opacity="1"
           fill-rule="nonzero"
           stroke="none"
           visibility="visible"
           display="inline"
           overflow="visible"
           id="path2" />
      </g>
    </g>
  </g>
</svg>
